<?xml version="1.0" encoding="UTF-8" standalone="no"?>
<!DOCTYPE svg PUBLIC "-//W3C//DTD SVG 1.1//EN"
 "http://www.w3.org/Graphics/SVG/1.1/DTD/svg11.dtd">
<!-- Generated by graphviz version 2.42.3 (20191010.1750)
 -->
<!-- Title: snakemake_dag Pages: 1 -->
<svg width="211pt" height="548pt"
 viewBox="0.00 0.00 210.54 548.00" xmlns="http://www.w3.org/2000/svg" xmlns:xlink="http://www.w3.org/1999/xlink">
<g id="graph0" class="graph" transform="scale(1 1) rotate(0) translate(4 544)">
<title>snakemake_dag</title>
<polygon fill="white" stroke="transparent" points="-4,4 -4,-544 206.54,-544 206.54,4 -4,4"/>
<!-- 0 -->
<g id="node1" class="node">
<title>0</title>
<path fill="none" stroke="#d8a456" stroke-width="2" d="M77.04,-36C77.04,-36 47.04,-36 47.04,-36 41.04,-36 35.04,-30 35.04,-24 35.04,-24 35.04,-12 35.04,-12 35.04,-6 41.04,0 47.04,0 47.04,0 77.04,0 77.04,0 83.04,0 89.04,-6 89.04,-12 89.04,-12 89.04,-24 89.04,-24 89.04,-30 83.04,-36 77.04,-36"/>
<text text-anchor="middle" x="62.04" y="-15.5" font-family="sans" font-size="10.00">all</text>
</g>
<!-- 1 -->
<g id="node2" class="node">
<title>1</title>
<path fill="none" stroke="#56d86b" stroke-width="2" d="M91.04,-180C91.04,-180 33.04,-180 33.04,-180 27.04,-180 21.04,-174 21.04,-168 21.04,-168 21.04,-156 21.04,-156 21.04,-150 27.04,-144 33.04,-144 33.04,-144 91.04,-144 91.04,-144 97.04,-144 103.04,-150 103.04,-156 103.04,-156 103.04,-168 103.04,-168 103.04,-174 97.04,-180 91.04,-180"/>
<text text-anchor="middle" x="62.04" y="-159.5" font-family="sans" font-size="10.00">final_dnapipe</text>
</g>
<!-- 1&#45;&gt;0 -->
<g id="edge1" class="edge">
<title>1&#45;&gt;0</title>
<path fill="none" stroke="grey" stroke-width="2" d="M43.44,-143.76C34.51,-134.2 24.75,-121.53 20.04,-108 14.78,-92.89 14.78,-87.11 20.04,-72 23.57,-61.86 29.95,-52.19 36.68,-43.96"/>
<polygon fill="grey" stroke="grey" stroke-width="2" points="39.48,-46.07 43.44,-36.24 34.22,-41.46 39.48,-46.07"/>
</g>
<!-- 2 -->
<g id="node3" class="node">
<title>2</title>
<path fill="none" stroke="#567bd8" stroke-width="2" d="M83.04,-108C83.04,-108 41.04,-108 41.04,-108 35.04,-108 29.04,-102 29.04,-96 29.04,-96 29.04,-84 29.04,-84 29.04,-78 35.04,-72 41.04,-72 41.04,-72 83.04,-72 83.04,-72 89.04,-72 95.04,-78 95.04,-84 95.04,-84 95.04,-96 95.04,-96 95.04,-102 89.04,-108 83.04,-108"/>
<text text-anchor="middle" x="62.04" y="-87.5" font-family="sans" font-size="10.00">landscape</text>
</g>
<!-- 1&#45;&gt;2 -->
<g id="edge5" class="edge">
<title>1&#45;&gt;2</title>
<path fill="none" stroke="grey" stroke-width="2" d="M62.04,-143.7C62.04,-135.98 62.04,-126.71 62.04,-118.11"/>
<polygon fill="grey" stroke="grey" stroke-width="2" points="65.54,-118.1 62.04,-108.1 58.54,-118.1 65.54,-118.1"/>
</g>
<!-- 3 -->
<g id="node4" class="node">
<title>3</title>
<path fill="none" stroke="#d8cb56" stroke-width="2" d="M155.04,-108C155.04,-108 125.04,-108 125.04,-108 119.04,-108 113.04,-102 113.04,-96 113.04,-96 113.04,-84 113.04,-84 113.04,-78 119.04,-72 125.04,-72 125.04,-72 155.04,-72 155.04,-72 161.04,-72 167.04,-78 167.04,-84 167.04,-84 167.04,-96 167.04,-96 167.04,-102 161.04,-108 155.04,-108"/>
<text text-anchor="middle" x="140.04" y="-87.5" font-family="sans" font-size="10.00">charts</text>
</g>
<!-- 1&#45;&gt;3 -->
<g id="edge6" class="edge">
<title>1&#45;&gt;3</title>
<path fill="none" stroke="grey" stroke-width="2" d="M81.32,-143.7C90.96,-135.05 102.77,-124.45 113.27,-115.03"/>
<polygon fill="grey" stroke="grey" stroke-width="2" points="115.88,-117.39 120.98,-108.1 111.2,-112.18 115.88,-117.39"/>
</g>
<!-- 2&#45;&gt;0 -->
<g id="edge2" class="edge">
<title>2&#45;&gt;0</title>
<path fill="none" stroke="grey" stroke-width="2" d="M62.04,-71.7C62.04,-63.98 62.04,-54.71 62.04,-46.11"/>
<polygon fill="grey" stroke="grey" stroke-width="2" points="65.54,-46.1 62.04,-36.1 58.54,-46.1 65.54,-46.1"/>
</g>
<!-- 3&#45;&gt;0 -->
<g id="edge3" class="edge">
<title>3&#45;&gt;0</title>
<path fill="none" stroke="grey" stroke-width="2" d="M120.76,-71.7C111.13,-63.05 99.31,-52.45 88.82,-43.03"/>
<polygon fill="grey" stroke="grey" stroke-width="2" points="90.88,-40.18 81.1,-36.1 86.21,-45.39 90.88,-40.18"/>
</g>
<!-- 4 -->
<g id="node5" class="node">
<title>4</title>
<path fill="none" stroke="#d85656" stroke-width="2" d="M95.04,-252C95.04,-252 29.04,-252 29.04,-252 23.04,-252 17.04,-246 17.04,-240 17.04,-240 17.04,-228 17.04,-228 17.04,-222 23.04,-216 29.04,-216 29.04,-216 95.04,-216 95.04,-216 101.04,-216 107.04,-222 107.04,-228 107.04,-228 107.04,-240 107.04,-240 107.04,-246 101.04,-252 95.04,-252"/>
<text text-anchor="middle" x="62.04" y="-231.5" font-family="sans" font-size="10.00">cleaning_reads</text>
</g>
<!-- 4&#45;&gt;1 -->
<g id="edge4" class="edge">
<title>4&#45;&gt;1</title>
<path fill="none" stroke="grey" stroke-width="2" d="M62.04,-215.7C62.04,-207.98 62.04,-198.71 62.04,-190.11"/>
<polygon fill="grey" stroke="grey" stroke-width="2" points="65.54,-190.1 62.04,-180.1 58.54,-190.1 65.54,-190.1"/>
</g>
<!-- 5 -->
<g id="node6" class="node">
<title>5</title>
<path fill="none" stroke="#56d0d8" stroke-width="2" d="M89.54,-324C89.54,-324 34.54,-324 34.54,-324 28.54,-324 22.54,-318 22.54,-312 22.54,-312 22.54,-300 22.54,-300 22.54,-294 28.54,-288 34.54,-288 34.54,-288 89.54,-288 89.54,-288 95.54,-288 101.54,-294 101.54,-300 101.54,-300 101.54,-312 101.54,-312 101.54,-318 95.54,-324 89.54,-324"/>
<text text-anchor="middle" x="62.04" y="-303.5" font-family="sans" font-size="10.00">extract_mito</text>
</g>
<!-- 5&#45;&gt;4 -->
<g id="edge7" class="edge">
<title>5&#45;&gt;4</title>
<path fill="none" stroke="grey" stroke-width="2" d="M62.04,-287.7C62.04,-279.98 62.04,-270.71 62.04,-262.11"/>
<polygon fill="grey" stroke="grey" stroke-width="2" points="65.54,-262.1 62.04,-252.1 58.54,-262.1 65.54,-262.1"/>
</g>
<!-- 6 -->
<g id="node7" class="node">
<title>6</title>
<path fill="none" stroke="#d87d56" stroke-width="2" d="M190.54,-324C190.54,-324 131.54,-324 131.54,-324 125.54,-324 119.54,-318 119.54,-312 119.54,-312 119.54,-300 119.54,-300 119.54,-294 125.54,-288 131.54,-288 131.54,-288 190.54,-288 190.54,-288 196.54,-288 202.54,-294 202.54,-300 202.54,-300 202.54,-312 202.54,-312 202.54,-318 196.54,-324 190.54,-324"/>
<text text-anchor="middle" x="161.04" y="-303.5" font-family="sans" font-size="10.00">extract_conta</text>
</g>
<!-- 6&#45;&gt;4 -->
<g id="edge8" class="edge">
<title>6&#45;&gt;4</title>
<path fill="none" stroke="grey" stroke-width="2" d="M136.82,-287.88C124.12,-278.89 108.38,-267.76 94.62,-258.03"/>
<polygon fill="grey" stroke="grey" stroke-width="2" points="96.54,-255.11 86.35,-252.19 92.5,-260.82 96.54,-255.11"/>
</g>
<!-- 7 -->
<g id="node8" class="node">
<title>7</title>
<path fill="none" stroke="#68d856" stroke-width="2" d="M43.04,-540C43.04,-540 13.04,-540 13.04,-540 7.04,-540 1.04,-534 1.04,-528 1.04,-528 1.04,-516 1.04,-516 1.04,-510 7.04,-504 13.04,-504 13.04,-504 43.04,-504 43.04,-504 49.04,-504 55.04,-510 55.04,-516 55.04,-516 55.04,-528 55.04,-528 55.04,-534 49.04,-540 43.04,-540"/>
<text text-anchor="middle" x="28.04" y="-519.5" font-family="sans" font-size="10.00">curing</text>
</g>
<!-- 7&#45;&gt;4 -->
<g id="edge9" class="edge">
<title>7&#45;&gt;4</title>
<path fill="none" stroke="grey" stroke-width="2" d="M22.25,-503.85C9.86,-464.21 -15.79,-363.8 14.04,-288 18.22,-277.39 25.58,-267.57 33.3,-259.33"/>
<polygon fill="grey" stroke="grey" stroke-width="2" points="35.8,-261.78 40.41,-252.24 30.86,-256.83 35.8,-261.78"/>
</g>
<!-- 9 -->
<g id="node10" class="node">
<title>9</title>
<path fill="none" stroke="#56a9d8" stroke-width="2" d="M91.04,-468C91.04,-468 35.04,-468 35.04,-468 29.04,-468 23.04,-462 23.04,-456 23.04,-456 23.04,-444 23.04,-444 23.04,-438 29.04,-432 35.04,-432 35.04,-432 91.04,-432 91.04,-432 97.04,-432 103.04,-438 103.04,-444 103.04,-444 103.04,-456 103.04,-456 103.04,-462 97.04,-468 91.04,-468"/>
<text text-anchor="middle" x="63.04" y="-447.5" font-family="sans" font-size="10.00">fast_dnapipe</text>
</g>
<!-- 7&#45;&gt;9 -->
<g id="edge13" class="edge">
<title>7&#45;&gt;9</title>
<path fill="none" stroke="grey" stroke-width="2" d="M36.69,-503.7C40.68,-495.73 45.49,-486.1 49.91,-477.26"/>
<polygon fill="grey" stroke="grey" stroke-width="2" points="53.15,-478.61 54.49,-468.1 46.89,-475.48 53.15,-478.61"/>
</g>
<!-- 8 -->
<g id="node9" class="node">
<title>8</title>
<path fill="none" stroke="#8fd856" stroke-width="2" d="M93.54,-396C93.54,-396 34.54,-396 34.54,-396 28.54,-396 22.54,-390 22.54,-384 22.54,-384 22.54,-372 22.54,-372 22.54,-366 28.54,-360 34.54,-360 34.54,-360 93.54,-360 93.54,-360 99.54,-360 105.54,-366 105.54,-372 105.54,-372 105.54,-384 105.54,-384 105.54,-390 99.54,-396 93.54,-396"/>
<text text-anchor="middle" x="64.04" y="-375.5" font-family="sans" font-size="10.00">concat_trinity</text>
</g>
<!-- 8&#45;&gt;5 -->
<g id="edge10" class="edge">
<title>8&#45;&gt;5</title>
<path fill="none" stroke="grey" stroke-width="2" d="M63.55,-359.7C63.33,-351.98 63.06,-342.71 62.82,-334.11"/>
<polygon fill="grey" stroke="grey" stroke-width="2" points="66.32,-334 62.53,-324.1 59.32,-334.2 66.32,-334"/>
</g>
<!-- 8&#45;&gt;6 -->
<g id="edge11" class="edge">
<title>8&#45;&gt;6</title>
<path fill="none" stroke="grey" stroke-width="2" d="M88.02,-359.7C100.35,-350.8 115.56,-339.82 128.9,-330.2"/>
<polygon fill="grey" stroke="grey" stroke-width="2" points="131.28,-332.79 137.34,-324.1 127.18,-327.12 131.28,-332.79"/>
</g>
<!-- 9&#45;&gt;8 -->
<g id="edge12" class="edge">
<title>9&#45;&gt;8</title>
<path fill="none" stroke="grey" stroke-width="2" d="M63.29,-431.7C63.4,-423.98 63.53,-414.71 63.66,-406.11"/>
<polygon fill="grey" stroke="grey" stroke-width="2" points="67.15,-406.15 63.8,-396.1 60.16,-406.05 67.15,-406.15"/>
</g>
</g>
</svg>
